<?xml version="1.0" encoding="UTF-8"?>
<svg id="Layer_2" data-name="Layer 2" xmlns="http://www.w3.org/2000/svg" xmlns:xlink="http://www.w3.org/1999/xlink" viewBox="0 0 251.23 251.23">
  <defs>
    <style>
      .cls-1 {
        fill: url(#linear-gradient);
      }

      .cls-1, .cls-2, .cls-3, .cls-4, .cls-5, .cls-6 {
        stroke-width: 0px;
      }

      .cls-7 {
        fill: #231f20;
        stroke: #231f20;
        stroke-miterlimit: 10;
      }

      .cls-2 {
        fill: #b4dcb7;
      }

      .cls-3 {
        fill: url(#radial-gradient);
        isolation: isolate;
        opacity: .44;
      }

      .cls-4 {
        fill: url(#linear-gradient-2);
      }

      .cls-5 {
        fill: #e4e769;
      }

      .cls-6 {
        fill: #0d152c;
      }
    </style>
    <linearGradient id="linear-gradient" x1="204.17" y1="1940.45" x2="275.01" y2="1879.5" gradientTransform="translate(-27.28 1194.96) scale(.56 -.57)" gradientUnits="userSpaceOnUse">
      <stop offset="0" stop-color="#5c9fd3"/>
      <stop offset="1" stop-color="#316a99"/>
    </linearGradient>
    <linearGradient id="linear-gradient-2" x1="302.39" y1="1842.62" x2="277.1" y2="1878.41" gradientTransform="translate(-27.28 1194.96) scale(.56 -.57)" gradientUnits="userSpaceOnUse">
      <stop offset="0" stop-color="#ffd53d"/>
      <stop offset="1" stop-color="#fee875"/>
    </linearGradient>
    <radialGradient id="radial-gradient" cx="3048.8" cy="544.47" fx="3048.8" fy="544.47" r="18.87" gradientTransform="translate(699.84 905.29) rotate(-90) scale(.24 -1.05)" gradientUnits="userSpaceOnUse">
      <stop offset="0" stop-color="#b9b9b9" stop-opacity=".5"/>
      <stop offset="1" stop-color="#7f8080" stop-opacity="0"/>
    </radialGradient>
  </defs>
  <g id="Layer_1-2" data-name="Layer 1">
    <circle class="cls-6" cx="125.61" cy="125.61" r="125.61"/>
    <rect class="cls-5" x="81.86" y="26.63" width="11.35" height="54.45" rx="5.68" ry="5.68"/>
    <rect class="cls-5" x="119.78" y="26.63" width="11.35" height="54.45" rx="5.68" ry="5.68"/>
    <rect class="cls-5" x="155.9" y="26.63" width="11.35" height="54.45" rx="5.68" ry="5.68"/>
    <rect class="cls-5" x="85.99" y="173.74" width="11.35" height="54.45" rx="5.68" ry="5.68"/>
    <rect class="cls-5" x="123.91" y="173.74" width="11.35" height="54.45" rx="5.68" ry="5.68"/>
    <rect class="cls-5" x="160.03" y="173.74" width="11.35" height="54.45" rx="5.68" ry="5.68"/>
    <rect class="cls-5" x="199.65" y="136.31" width="11.35" height="54.45" rx="5.68" ry="5.68" transform="translate(41.8 368.87) rotate(-90)"/>
    <rect class="cls-5" x="199.65" y="98.39" width="11.35" height="54.45" rx="5.68" ry="5.68" transform="translate(79.72 330.94) rotate(-90)"/>
    <rect class="cls-5" x="199.65" y="62.27" width="11.35" height="54.45" rx="5.68" ry="5.68" transform="translate(115.83 294.83) rotate(-90)"/>
    <rect class="cls-5" x="36.3" y="135.41" width="11.35" height="54.45" rx="5.68" ry="5.68" transform="translate(-120.66 204.61) rotate(-90)"/>
    <rect class="cls-5" x="36.3" y="97.48" width="11.35" height="54.45" rx="5.68" ry="5.68" transform="translate(-82.73 166.69) rotate(-90)"/>
    <rect class="cls-5" x="36.3" y="61.37" width="11.35" height="54.45" rx="5.68" ry="5.68" transform="translate(-46.62 130.57) rotate(-90)"/>
    <rect class="cls-2" x="60.98" y="66.84" width="128.96" height="122.01" rx="11.34" ry="11.34"/>
    <rect class="cls-7" x="74.21" y="76.6" width="102.49" height="102.49" rx="20" ry="20"/>
    <g>
      <path id="path1948" class="cls-1" d="m125.03,90.76c-2.98.01-5.82.27-8.33.71-7.37,1.3-8.71,4.03-8.71,9.06v6.64h17.42v2.21h-23.96c-5.06,0-9.5,3.04-10.88,8.83-1.6,6.64-1.67,10.78,0,17.71,1.24,5.16,4.2,8.83,9.26,8.83h5.99v-7.96c0-5.75,4.98-10.82,10.88-10.82h17.4c4.84,0,8.71-3.99,8.71-8.85v-16.59c0-4.72-3.98-8.27-8.71-9.06-2.99-.5-6.1-.72-9.08-.71Zm-9.42,5.34c1.8,0,3.27,1.49,3.27,3.33,0,1.83-1.47,3.31-3.27,3.31-1.81,0-3.27-1.48-3.27-3.31s1.46-3.33,3.27-3.33Z"/>
      <path id="path1950" class="cls-4" d="m144.99,109.38v7.74c0,6-5.09,11.05-10.88,11.05h-17.4c-4.77,0-8.71,4.08-8.71,8.85v16.59c0,4.72,4.11,7.5,8.71,8.85,5.52,1.62,10.8,1.91,17.4,0,4.39-1.27,8.71-3.83,8.71-8.85v-6.64h-17.4v-2.21h26.11c5.06,0,6.95-3.53,8.71-8.83,1.82-5.46,1.74-10.71,0-17.71-1.25-5.04-3.64-8.83-8.71-8.83h-6.54Zm-9.79,42.01c1.81,0,3.27,1.48,3.27,3.31s-1.46,3.33-3.27,3.33-3.27-1.49-3.27-3.33,1.47-3.31,3.27-3.31Z"/>
      <ellipse id="path1894" class="cls-3" cx="125.61" cy="173.74" rx="23.35" ry="4.53"/>
    </g>
  </g>
</svg>